<svg width="150" height="100" viewBox="0 0 150 50" fill="none" xmlns="http://www.w3.org/2000/svg">
<path d="M23.863 53.1241C24.8685 53.101 25.8335 52.7229 26.5872 52.0569C27.3409 51.3908 27.8347 50.4797 27.9814 49.4846H19.585C19.7358 50.5067 20.2527 51.4393 21.0396 52.1087C21.8266 52.7782 22.8299 53.1391 23.863 53.1241Z" fill="#DB1515"/>
<path d="M47.569 43.3066L47.0262 42.8277C45.4865 41.4559 44.1388 39.8827 43.0196 38.1506C41.7972 35.7603 41.0645 33.1499 40.8646 30.4726V22.587C40.8581 21.6291 40.7727 20.6735 40.6092 19.7296C37.9053 19.1739 35.4765 17.7008 33.7341 15.5598C31.9916 13.4188 31.0425 10.7415 31.0475 7.98107V6.97542C29.3809 6.15524 27.5903 5.61589 25.7479 5.37915V3.36784C25.7479 2.80266 25.5234 2.26062 25.1237 1.86098C24.7241 1.46133 24.1821 1.23682 23.6169 1.23682C23.0517 1.23682 22.5097 1.46133 22.11 1.86098C21.7104 2.26062 21.4858 2.80266 21.4858 3.36784V5.45896C17.3606 6.04089 13.5852 8.0956 10.8566 11.2437C8.12802 14.3919 6.63049 18.4209 6.6405 22.587V30.4726C6.44057 33.1499 5.70792 35.7603 4.48553 38.1506C3.38551 39.8784 2.0595 41.4513 0.542733 42.8277L0 43.3066V47.8081H47.569V43.3066Z" fill="#DB1515"/>
<path d="M43.0185 15.9627C47.4265 15.9627 50.9998 12.3894 50.9998 7.98137C50.9998 3.57338 47.4265 0 43.0185 0C38.6105 0 35.0371 3.57338 35.0371 7.98137C35.0371 12.3894 38.6105 15.9627 43.0185 15.9627Z" fill="#DB1515"/>
</svg>

